<?xml version="1.0" encoding="UTF-8"?>
<svg id="Capa_1" data-name="Capa 1" xmlns="http://www.w3.org/2000/svg" viewBox="0 0 2878.79 1721.21">
  <defs>
    <style>
      .cls-1 {
        fill: none;
        stroke: #00413d;
        stroke-linecap: round;
        stroke-linejoin: round;
        stroke-width: 3px;
      }

      .cls-2 {
        fill: #86ff00;
      }

      .cls-3 {
        fill: #fff;
      }

      .cls-4 {
        fill: #00413d;
      }
    </style>
  </defs>
  <line class="cls-1" x1="2726.58" y1="1212.22" x2="2521.91" y2="1212.22"/>
  <path class="cls-4" d="M2731.82,1183.6h-14.24c-13.6-119.1-110.88-212.91-231.43-221.39l-216.98-410.9c-4.96-9.39-14.68-15.26-25.3-15.26h-149.1c-2.17-189.6-149.59-344.63-336.02-359.2v-38.89c0-15.8-12.82-28.62-28.62-28.62H175.59c-31.56,0-57.23,25.67-57.23,57.23v1022.44c0,15.8,12.82,28.62,28.62,28.62h28.62v188.27c0,31.56,25.39,57.23,56.6,57.23h304.59c13.76,84.24,86.81,148.75,174.89,148.75s161.12-64.51,174.89-148.75h1292.36c13.76,84.24,86.8,148.75,174.89,148.75s161.09-64.51,174.88-148.75h203.14c15.8,0,28.62-12.82,28.62-28.62v-222.29c0-15.8-12.82-28.62-28.62-28.62Z"/>
  <path class="cls-3" d="M828.2,1405.84c2.29,9.16,3.62,18.7,3.62,28.62s-1.34,19.46-3.62,28.62c-12.97,52.46-60.28,91.57-116.56,91.57s-103.59-39.11-116.56-91.57c-2.29-9.16-3.62-18.7-3.62-28.62s1.34-19.46,3.62-28.62c12.97-52.27,60.28-91.38,116.56-91.38s103.78,39.11,116.56,91.38Z"/>
  <path class="cls-3" d="M2470.33,1405.84c2.29,9.16,3.62,18.7,3.62,28.62s-1.34,19.46-3.62,28.62c-12.97,52.46-60.28,91.57-116.56,91.57s-103.59-39.11-116.56-91.57c-2.29-9.16-3.62-18.7-3.62-28.62s1.34-19.46,3.62-28.62c12.97-52.27,60.28-91.38,116.56-91.38s103.78,39.11,116.56,91.38Z"/>
  <path class="cls-3" d="M2037.67,536.13h-278.9V233.95c154.9,14.31,276.81,144.03,278.9,302.18Z"/>
  <path class="cls-3" d="M2703.26,1240.83v165.01h-174.55c-13.74-84.13-86.99-148.61-174.93-148.61s-161.2,64.48-174.93,148.61h-420.07v-812.48h467.76l194.39,367.99,29.19,57.23h18.31c97.1,0,177.61,71.73,191.53,165.01v57.23h43.3Z"/>
  <path class="cls-2" d="M1701.53,1212.21v193.63h-814.96c-13.74-84.13-86.8-148.61-174.93-148.61s-161.2,64.48-174.93,148.61H232.81v-216.9c0-15.64-12.78-28.62-28.62-28.62h-28.62V166.61h1525.96v1045.6Z"/>
  <path class="cls-2" d="M2456.07,1018.54l-229.46-425.26h-356.98c0,234.87,190.4,425.26,425.26,425.26h161.18Z"/>
  <path class="cls-4" d="M1207.19,889.81s-69.77-.04-83.43-.04c-60.96,0-105.66-20.15-129.31-58.35l-3.27-5.29,79.64.44c82.5.44,147.77-73.97,131.85-154.93-.44-2.24-.95-4.52-1.52-6.81-19.84-79.19-91.91-107.53-153.18-107.53l-290.14.02v112.06s.01,73.81.01,73.81l.02,260.67h122.54s0-171.5,0-171.5l11.15,26.47c28.22,66.91,105.31,145.02,229.64,145.01h86.03s0-114.04,0-114.04ZM1063.69,635.63h27.47l39.56,91.87h-26.38l-27.04-64.84-27.04,64.84h-26.38l39.79-91.87ZM955.71,727.51l-27.04-64.84-27.04,64.84h-26.38l39.79-91.87h27.47l39.56,91.87h-26.37Z"/>
</svg>