<?xml version="1.0" encoding="UTF-8"?>
<svg id="Capa_1" data-name="Capa 1" xmlns="http://www.w3.org/2000/svg" viewBox="0 0 2834.65 1020.47">
  <defs>
    <style>
      .cls-1 {
        fill: #a6ff33;
      }
    </style>
  </defs>
  <g>
    <g>
      <polygon class="cls-1" points="97.58 754.47 63.05 698.93 31.9 698.93 31.9 830.28 60.43 830.28 60.43 745.09 97.02 800.63 97.77 800.63 134.73 744.53 134.73 830.28 163.25 830.28 163.25 698.93 132.1 698.93 97.58 754.47"/>
      <path class="cls-1" d="M278.28,774.17c0,10.51-2.5,18.39-7.5,23.65-5.01,5.25-11.95,7.88-20.83,7.88s-15.83-2.72-20.83-8.16c-5-5.45-7.5-13.54-7.5-24.3v-74.31h-28.9v75.06c0,19.39,5.07,33.96,15.2,43.72,10.13,9.76,24.02,14.64,41.66,14.64,8.75,0,16.7-1.22,23.83-3.66,7.13-2.44,13.2-6.13,18.2-11.07,5.01-4.94,8.85-11.1,11.54-18.49,2.69-7.38,4.03-16.07,4.03-26.08v-74.12h-28.9v75.24Z"/>
      <path class="cls-1" d="M438.25,717.69c-6.19-5.88-13.57-10.48-22.14-13.79-8.57-3.31-17.98-4.97-28.24-4.97h-51.23v131.35h51.23c10.26,0,19.67-1.69,28.24-5.07,8.57-3.38,15.95-8.01,22.14-13.89,6.19-5.88,10.98-12.82,14.35-20.83,3.38-8.01,5.07-16.64,5.07-25.9v-.37c0-9.26-1.69-17.86-5.07-25.8-3.38-7.94-8.16-14.85-14.35-20.73ZM427.46,764.98c0,5.88-.97,11.2-2.91,15.95-1.94,4.76-4.63,8.88-8.07,12.38-3.44,3.5-7.6,6.19-12.48,8.07-4.88,1.88-10.26,2.81-16.14,2.81h-22.33v-79.18h22.33c5.88,0,11.26.97,16.14,2.91,4.88,1.94,9.04,4.66,12.48,8.16,3.44,3.5,6.13,7.69,8.07,12.57,1.94,4.88,2.91,10.2,2.91,15.95v.37Z"/>
      <path class="cls-1" d="M472.11,830.28h29.46l12.01-29.46h55.54l12.01,29.46h30.21l-56.29-132.29h-26.65l-56.29,132.29ZM558.8,775.3h-34.9l17.45-42.59,17.45,42.59Z"/>
      <polygon class="cls-1" points="658.25 698.93 631.61 698.93 631.61 830.28 660.13 830.28 660.13 746.78 723.74 830.28 748.32 830.28 748.32 698.93 719.8 698.93 719.8 779.8 658.25 698.93"/>
      <polygon class="cls-1" points="778.16 724.26 848.15 724.26 775.91 808.32 775.91 830.28 885.3 830.28 885.3 804.95 813.06 804.95 885.3 720.88 885.3 698.93 778.16 698.93 778.16 724.26"/>
      <path class="cls-1" d="M957.73,697.99l-56.29,132.29h29.46l12.01-29.46h55.54l12.01,29.46h30.21l-56.29-132.29h-26.65ZM953.23,775.3l17.45-42.59,17.45,42.59h-34.9Z"/>
      <path class="cls-1" d="M1122.39,803.35c-3.32,2.19-7.98,3.28-13.98,3.28-7.51,0-14.42-1.44-20.74-4.32-6.32-2.87-12.48-6.76-18.48-11.63l-17.08,20.45c7.88,7.13,16.63,12.42,26.27,15.86,9.63,3.44,19.45,5.16,29.46,5.16,7.13,0,13.63-.91,19.49-2.72,5.86-1.82,10.9-4.44,15.13-7.88,4.23-3.44,7.52-7.69,9.88-12.76s3.54-10.85,3.54-17.36v-.37c0-5.75-.91-10.7-2.73-14.82-1.82-4.13-4.52-7.72-8.09-10.79-3.58-3.06-7.96-5.69-13.17-7.88-5.21-2.19-11.13-4.16-17.78-5.91-5.65-1.5-10.32-2.82-14.02-3.94-3.7-1.12-6.62-2.31-8.75-3.57-2.14-1.25-3.61-2.65-4.42-4.22-.81-1.56-1.22-3.41-1.22-5.53v-.37c0-3.25,1.41-5.97,4.22-8.16,2.82-2.19,7.04-3.28,12.67-3.28s11.26,1.16,16.89,3.47c5.63,2.32,11.38,5.47,17.26,9.48l15.01-21.77c-6.76-5.38-14.17-9.5-22.23-12.38-8.07-2.87-16.92-4.31-26.55-4.31-6.76,0-12.94.94-18.55,2.81-5.61,1.88-10.43,4.57-14.47,8.07-4.04,3.5-7.18,7.66-9.41,12.48-2.24,4.82-3.35,10.23-3.35,16.23v.37c0,6.51,1.03,11.95,3.11,16.33,2.07,4.38,4.98,8.04,8.75,10.98s8.34,5.41,13.74,7.41c5.39,2,11.41,3.82,18.06,5.44,5.52,1.38,10,2.69,13.45,3.94,3.45,1.25,6.15,2.5,8.09,3.75,1.95,1.25,3.26,2.6,3.95,4.04.69,1.44,1.03,3.09,1.03,4.97v.38c0,3.88-1.66,6.91-4.97,9.1Z"/>
      <path class="cls-1" d="M1327.57,798.75c3.25-4.38,6.32-8.94,9.19-13.7,2.88-4.75,5.56-9.44,8.07-14.07l-21.2-11.64c-2.13,4-4.26,7.91-6.38,11.73-2.13,3.82-4.25,7.41-6.38,10.79l-17.45-17.45c8.13-3.13,14.76-7.44,19.89-12.95,5.13-5.51,7.69-12.7,7.69-21.58,0-4.62-.88-8.97-2.63-13.04-1.75-4.06-4.26-7.6-7.51-10.6-3.25-3-7.13-5.35-11.63-7.04-4.51-1.69-9.57-2.53-15.2-2.53-6.38,0-12.04.97-16.98,2.91-4.94,1.94-9.1,4.51-12.48,7.7-3.38,3.19-5.95,6.88-7.7,11.07-1.75,4.19-2.63,8.54-2.63,13.04s.72,9.04,2.16,13.23c1.44,4.19,3.78,8.6,7.04,13.23-8.26,3.75-14.57,8.6-18.95,14.54-4.38,5.95-6.56,13.17-6.56,21.68,0,5.88,1.12,11.16,3.38,15.86,2.25,4.69,5.35,8.69,9.29,12.01,3.94,3.32,8.6,5.85,13.98,7.6,5.38,1.75,11.19,2.63,17.45,2.63,7.63,0,14.61-1.35,20.92-4.03,6.32-2.69,12.16-6.22,17.55-10.6l15.2,15.38,21.2-14.82-19.33-19.33ZM1274.19,722.94c2.31-2.5,5.41-3.75,9.29-3.75,3.63,0,6.6,1.07,8.91,3.19,2.31,2.13,3.47,5.19,3.47,9.19,0,4.26-1.47,7.73-4.41,10.41-2.94,2.69-7.29,5.1-13.04,7.22-2.75-3.13-4.73-5.91-5.91-8.35-1.19-2.44-1.78-5.16-1.78-8.16,0-4,1.16-7.25,3.47-9.76ZM1285.07,806.54c-3.19,1.31-6.41,1.97-9.67,1.97-5.38,0-9.79-1.41-13.23-4.22-3.44-2.81-5.16-6.6-5.16-11.35,0-3.25.94-6.41,2.82-9.47s5-5.73,9.38-7.98l25.14,25.52c-3,2.38-6.1,4.22-9.29,5.54Z"/>
    </g>
    <path class="cls-1" d="M100.02,951.04h29.08v18.9c-7.38,5.29-16.45,7.94-27.21,7.94-5.88,0-11.23-1.03-16.04-3.11-4.82-2.07-9.01-4.98-12.57-8.75-3.57-3.76-6.32-8.18-8.26-13.26-1.94-5.08-2.91-10.63-2.91-16.65v-.37c0-5.64.96-10.94,2.91-15.89,1.94-4.95,4.63-9.28,8.07-12.97,3.44-3.7,7.44-6.65,12.01-8.84,4.56-2.19,9.47-3.29,14.73-3.29,3.75,0,7.19.31,10.32.94,3.13.63,6.03,1.5,8.73,2.63,2.69,1.12,5.28,2.5,7.79,4.13,2.5,1.63,5,3.5,7.5,5.63l18.2-21.95c-3.38-2.88-6.88-5.44-10.51-7.7-3.63-2.25-7.51-4.13-11.64-5.63-4.13-1.5-8.6-2.65-13.42-3.47-4.81-.81-10.16-1.22-16.04-1.22-10.01,0-19.2,1.78-27.58,5.35-8.38,3.57-15.64,8.44-21.77,14.64-6.13,6.19-10.92,13.39-14.35,21.58-3.44,8.2-5.16,16.98-5.16,26.36v.37c0,9.76,1.69,18.77,5.06,27.02,3.38,8.26,8.1,15.39,14.17,21.39,6.07,6.01,13.32,10.7,21.77,14.07,8.44,3.38,17.79,5.07,28.05,5.07,12.01,0,22.67-2.03,31.99-6.1,9.32-4.07,17.35-8.97,24.11-14.73v-57.05h-57.04v24.96Z"/>
    <path class="cls-1" d="M268.33,945.6c0,10.51-2.5,18.39-7.5,23.65-5.01,5.25-11.95,7.88-20.83,7.88s-15.83-2.72-20.83-8.16c-5-5.45-7.5-13.54-7.5-24.3v-74.31h-28.9v75.06c0,19.39,5.07,33.96,15.2,43.72,10.13,9.76,24.02,14.64,41.66,14.64,8.75,0,16.7-1.22,23.83-3.66,7.13-2.44,13.2-6.13,18.2-11.07,5.01-4.94,8.85-11.1,11.54-18.49,2.69-7.38,4.03-16.07,4.03-26.08v-74.12h-28.9v75.24Z"/>
    <path class="cls-1" d="M371.72,869.41l-56.29,132.29h29.46l12.01-29.46h55.54l12.01,29.46h30.21l-56.29-132.29h-26.65ZM367.22,946.72l17.45-42.59,17.45,42.59h-34.9Z"/>
    <path class="cls-1" d="M576.72,940.06c5.19-6.69,7.79-15.36,7.79-25.99v-.38c0-13.63-4.35-24.26-13.04-31.9-8.69-7.63-20.86-11.44-36.49-11.44h-60.05v131.35h28.9v-42.03h22.71l28.15,42.03h33.78l-32.09-46.91c8.38-3.13,15.16-8.04,20.36-14.73ZM555.24,915.57c0,5.63-1.91,10.13-5.72,13.51-3.82,3.38-9.29,5.07-16.42,5.07h-29.27v-37.72h28.71c7.13,0,12.7,1.56,16.7,4.69,4,3.13,6,7.82,6,14.07v.37Z"/>
    <path class="cls-1" d="M712.2,889.12c-6.19-5.88-13.57-10.48-22.14-13.79-8.57-3.31-17.98-4.97-28.24-4.97h-51.23v131.35h51.23c10.26,0,19.67-1.69,28.24-5.07,8.57-3.38,15.95-8.01,22.14-13.89,6.19-5.88,10.98-12.82,14.35-20.83,3.38-8.01,5.07-16.64,5.07-25.9v-.37c0-9.26-1.69-17.86-5.07-25.8-3.38-7.94-8.16-14.85-14.35-20.73ZM701.41,936.4c0,5.88-.97,11.2-2.91,15.95-1.94,4.76-4.63,8.88-8.07,12.38-3.44,3.5-7.6,6.19-12.48,8.07-4.88,1.88-10.26,2.81-16.14,2.81h-22.33v-79.18h22.33c5.88,0,11.26.97,16.14,2.91,4.88,1.94,9.04,4.66,12.48,8.16,3.44,3.5,6.13,7.69,8.07,12.57,1.94,4.88,2.91,10.2,2.91,15.95v.37Z"/>
    <path class="cls-1" d="M802.36,869.41l-56.29,132.29h29.46l12.01-29.46h55.54l12.01,29.46h30.21l-56.29-132.29h-26.65ZM797.86,946.72l17.45-42.59,17.45,42.59h-34.9Z"/>
    <polygon class="cls-1" points="971.24 925.89 936.71 870.35 905.56 870.35 905.56 1001.7 934.09 1001.7 934.09 916.51 970.68 972.05 971.43 972.05 1008.39 915.95 1008.39 1001.7 1036.91 1001.7 1036.91 870.35 1005.76 870.35 971.24 925.89"/>
    <path class="cls-1" d="M1151.94,945.6c0,10.51-2.5,18.39-7.5,23.65-5.01,5.25-11.95,7.88-20.83,7.88s-15.83-2.72-20.83-8.16c-5-5.45-7.5-13.54-7.5-24.3v-74.31h-28.9v75.06c0,19.39,5.07,33.96,15.2,43.72,10.13,9.76,24.02,14.64,41.66,14.64,8.75,0,16.7-1.22,23.83-3.66,7.13-2.44,13.2-6.13,18.2-11.07,5.01-4.94,8.85-11.1,11.54-18.49,2.69-7.38,4.03-16.07,4.03-26.08v-74.12h-28.9v75.24Z"/>
    <polygon class="cls-1" points="1238.82 948.41 1300.74 948.41 1300.74 922.7 1238.82 922.7 1238.82 896.06 1309.19 896.06 1309.19 870.35 1210.3 870.35 1210.3 1001.7 1310.12 1001.7 1310.12 976 1238.82 976 1238.82 948.41"/>
    <path class="cls-1" d="M1423,933.02c2.36-1.25,4.57-2.75,6.62-4.5,2.05-1.75,3.85-3.78,5.41-6.1,1.55-2.31,2.8-4.91,3.73-7.79s1.4-6.19,1.4-9.95v-.37c0-10.38-3.84-18.64-11.52-24.77-7.68-6.13-18.26-9.19-31.74-9.19h-60.88v131.35h62.38c7.37,0,14.08-.75,20.14-2.25,6.06-1.5,11.24-3.75,15.55-6.76,4.31-3,7.62-6.76,9.93-11.26,2.31-4.51,3.47-9.76,3.47-15.76v-.38c0-8.75-2.18-15.6-6.54-20.54s-10.34-8.85-17.93-11.73ZM1364.16,895.68h28.52c6.13,0,10.82,1.16,14.07,3.47,3.25,2.32,4.88,5.66,4.88,10.04v.37c0,4.88-1.88,8.42-5.63,10.6-3.75,2.19-8.82,3.28-15.2,3.28h-26.65v-27.77ZM1418.95,962.11c0,4.88-1.82,8.47-5.44,10.79-3.63,2.32-8.63,3.47-15.01,3.47h-34.34v-28.9h33.4c7.5,0,12.95,1.29,16.32,3.85s5.07,6.04,5.07,10.41v.38Z"/>
    <polygon class="cls-1" points="1500.39 870.35 1471.49 870.35 1471.49 1001.7 1565.87 1001.7 1565.87 975.62 1500.39 975.62 1500.39 870.35"/>
    <polygon class="cls-1" points="1616.16 948.41 1678.08 948.41 1678.08 922.7 1616.16 922.7 1616.16 896.06 1686.53 896.06 1686.53 870.35 1587.64 870.35 1587.64 1001.7 1687.47 1001.7 1687.47 976 1616.16 976 1616.16 948.41"/>
    <path class="cls-1" d="M1797.49,936.87c-3.58-3.06-7.96-5.69-13.17-7.88-5.21-2.19-11.13-4.16-17.78-5.91-5.65-1.5-10.32-2.82-14.02-3.94-3.7-1.12-6.62-2.31-8.75-3.57-2.14-1.25-3.61-2.65-4.42-4.22-.81-1.56-1.22-3.41-1.22-5.53v-.37c0-3.25,1.41-5.97,4.22-8.16,2.82-2.19,7.04-3.28,12.67-3.28s11.26,1.16,16.89,3.47c5.63,2.32,11.38,5.47,17.26,9.48l15.01-21.77c-6.76-5.38-14.17-9.5-22.23-12.38-8.07-2.87-16.92-4.31-26.55-4.31-6.76,0-12.94.94-18.55,2.81-5.61,1.88-10.43,4.57-14.47,8.07-4.04,3.5-7.18,7.66-9.41,12.48-2.24,4.82-3.35,10.23-3.35,16.23v.37c0,6.51,1.03,11.95,3.11,16.33,2.07,4.38,4.98,8.04,8.75,10.98,3.76,2.94,8.34,5.41,13.74,7.41,5.39,2,11.41,3.82,18.06,5.44,5.52,1.38,10,2.69,13.45,3.94,3.45,1.25,6.15,2.5,8.09,3.75,1.95,1.25,3.26,2.6,3.95,4.04.69,1.44,1.03,3.09,1.03,4.97v.38c0,3.88-1.66,6.91-4.97,9.1-3.32,2.19-7.98,3.28-13.98,3.28-7.51,0-14.42-1.44-20.74-4.32-6.32-2.87-12.48-6.76-18.48-11.63l-17.08,20.45c7.88,7.13,16.63,12.42,26.27,15.86,9.63,3.44,19.45,5.16,29.46,5.16,7.13,0,13.63-.91,19.49-2.72,5.86-1.82,10.9-4.44,15.13-7.88,4.23-3.44,7.52-7.69,9.88-12.76,2.36-5.07,3.54-10.85,3.54-17.36v-.37c0-5.75-.91-10.7-2.73-14.82-1.82-4.13-4.52-7.72-8.09-10.79Z"/>
  </g>
  <g>
    <path class="cls-1" d="M193.65,401.34c25.48,67.2,58.51,131.28,98.43,191.04h153.25l-19.91-29.71c-33.54-50.03-62.24-103.13-85.72-158.61l-15.79-37.29c123.88-67.39,124.02-334.65-98.97-334.65H31.9v560.25h133.36v-192.64h27.78l.61,1.61ZM165.27,168.03h49.99c81.17,0,74.28,95.8,2.98,95.8h-52.97v-95.8Z"/>
    <path class="cls-1" d="M858.2,352.9V32.12h-136.81l-.19,345.03c-.07,115.42-140.01,115.43-140.08,0l-.19-345.03h-136.81v320.78c0,325.23,414.08,325.23,414.08,0Z"/>
    <path class="cls-1" d="M1018.38,189.32c0-9.21,6.41-23.15,32.14-23.15l134.69.48,27.06-136.97-163.58.76c-76.16.17-165.18,63.45-165.18,168.71,0,153.59,205.59,159.12,205.59,219.49,0,11.4-6.81,38.22-56.47,38.22l-143.49.6,27.71,133.04,130.56,2.18c85.24-.77,176.54-49.9,176.54-167.55,0-173-205.57-176.61-205.58-235.81Z"/>
    <path class="cls-1" d="M1445.26,418.64c0,11.4-6.81,38.22-56.47,38.22l-143.49.6,27.72,133.04,130.56,2.18c85.24-.77,176.54-49.9,176.54-167.55,0-173-205.57-176.61-205.58-235.81,0-9.21,6.41-23.15,32.14-23.15l134.69.48,27.06-136.97-163.58.76c-76.16.17-165.18,63.45-165.18,168.71,0,153.59,205.59,159.12,205.59,219.49Z"/>
    <polygon class="cls-1" points="2332.62 241.63 2200.62 241.63 2200.62 167.14 2373.6 167.14 2345.9 32.12 2067.26 32.12 2067.26 592.38 2200.62 592.38 2200.62 376.65 2332.62 376.65 2332.62 241.63"/>
    <path class="cls-1" d="M1968.18,322.95l-88.74-290.82h-136.01l-170.8,560.23h136.12l10.09-33.32,4.42-15.19h23.01c55.88,0,104.05-12.8,144.39-33.09l14.84,52.81,8.5,28.79h136.35l-52.47-171.82-29.7-97.59ZM1763.6,405.91l27.65-94.75,23.69-84.21,16.77,73.78,22.67,80.81c-24.82,13.94-55.31,22.1-90.78,24.37Z"/>
    <path class="cls-1" d="M2750.27,420.53l-29.7-97.59-88.74-290.82h-136l-170.8,560.23h136.12l10.09-33.32,4.42-15.19h23c55.88,0,104.05-12.8,144.39-33.09l14.84,52.81,8.5,28.79h136.35l-52.47-171.82ZM2516,405.91l27.65-94.75,23.69-84.21,16.77,73.78,22.67,80.81c-24.82,13.94-55.31,22.1-90.78,24.37Z"/>
  </g>
</svg>